# xmcd CD database file
#
# Track frame offsets:
#	300
#	14374
#	31046
#	53495
#	71448
#	92267
#	110735
#	124444
#	142993
#	165678
#	182902
#
# Disc length: 2650 seconds
#
# Revision: 1
# Processed by: cddbd v1.5.2PL0 Copyright (c) Steve Scherf et al.
# Submitted via: CDex 1.51
#
DISCID=8d0a560b
DTITLE=Andreas Hertel Trio - Tea For Three
DYEAR=2005
DGENRE=Jazz
TTITLE0=Tea for two
TTITLE1=Triste
TTITLE2=Willow weep for me
TTITLE3=Ali and Frazier
TTITLE4=Moon River
TTITLE5=In a mellow tone
TTITLE6=So danco samba
TTITLE7=Blues for Martha
TTITLE8=Easy Living
TTITLE9=Blue Moon
TTITLE10=I want to be happy
EXTD=YEAR: 2005
EXTT0=
EXTT1=
EXTT2=
EXTT3=
EXTT4=
EXTT5=
EXTT6=
EXTT7=
EXTT8=
EXTT9=
EXTT10=
PLAYORDER=
